<svg width="657.9px" height="122px" xmlns="http://www.w3.org/2000/svg" viewBox="-78.94687499999998 14 657.89375 122" style="background: none" preserveAspectRatio="xMidYMid"><defs><filter id="editing-hover" x="-100%" y="-100%" width="300%" height="300%"><feFlood flood-color="#344e41" result="flood"></feFlood><feComposite operator="in" in2="SourceAlpha" in="flood" result="shadow"></feComposite><feOffset dx="-4" dy="-4" in="SourceGraphic" result="offset-1"></feOffset><feOffset dx="4" dy="4" in="shadow" result="offset-2"></feOffset><feMerge><feMergeNode in="offset-2"></feMergeNode><feMergeNode in="offset-1"></feMergeNode></feMerge></filter></defs><g filter="url(#editing-hover)"><g transform="matrix(1.4,0,0,1.8,-72.5,210)"><path d="M 15 -60.9 L 1 -60.9 L 9.1 -103.1 L 23.2 -103.1 L 15 -60.9 Z M 70.7 -59.6 L 70.7 -59.6 L 70.7 -59.6 Q 63 -59.6 63 -65.6 L 63 -65.6 L 63 -65.6 Q 63 -68.3 64.1 -73.3 L 64.1 -73.3 L 64.1 -73.3 Q 65.2 -78.4 65.6 -80.5 L 65.6 -80.5 L 65.6 -80.5 Q 66.5 -85.2 66.5 -86.6 L 66.5 -86.6 L 66.5 -86.6 Q 66.5 -89.9 64 -89.9 L 64 -89.9 L 64 -89.9 Q 62.4 -89.9 60.9 -87.7 L 60.9 -87.7 L 60.9 -87.7 Q 59.4 -85.5 58.7 -81.1 L 58.7 -81.1 L 54.7 -60.9 L 42.2 -59.6 L 45.7 -77 L 45.7 -77 Q 46.3 -79.9 46.8 -83.2 L 46.8 -83.2 L 46.8 -83.2 Q 47.3 -86.4 47.3 -86.9 L 47.3 -86.9 L 47.3 -86.9 Q 47.3 -89.9 45.1 -89.9 L 45.1 -89.9 L 45.1 -89.9 Q 43.6 -89.9 42 -87.7 L 42 -87.7 L 42 -87.7 Q 40.4 -85.5 39.5 -81.1 L 39.5 -81.1 L 35.6 -60.9 L 23 -59.6 L 29.7 -93.5 L 40.2 -94.8 L 39.1 -88.4 L 39.1 -88.4 Q 40.8 -91.8 43.8 -93.3 L 43.8 -93.3 L 43.8 -93.3 Q 46.9 -94.8 51.7 -94.8 L 51.7 -94.8 L 51.7 -94.8 Q 54.4 -94.8 56.2 -93.5 L 56.2 -93.5 L 56.2 -93.5 Q 58 -92.1 58.6 -90 L 58.6 -90 L 58.6 -90 Q 59.7 -92.2 62.5 -93.5 L 62.5 -93.5 L 62.5 -93.5 Q 65.3 -94.8 68.7 -94.8 L 68.7 -94.8 L 68.7 -94.8 Q 72.1 -94.8 73.8 -94.1 L 73.8 -94.1 L 73.8 -94.1 Q 75.5 -93.3 76.5 -92.1 L 76.5 -92.1 L 76.5 -92.1 Q 78.3 -89.9 78.3 -85.8 L 78.3 -85.8 L 78.3 -85.8 Q 78.3 -81.8 76.5 -73.4 L 76.5 -73.4 L 76.5 -73.4 Q 75.6 -69.3 75.6 -67.8 L 75.6 -67.8 L 75.6 -67.8 Q 75.6 -66.3 76.5 -65.4 L 76.5 -65.4 L 76.5 -65.4 Q 77.4 -64.5 78.6 -64.4 L 78.6 -64.4 L 78.6 -64.4 Q 78 -62.2 75.8 -60.9 L 75.8 -60.9 L 75.8 -60.9 Q 73.6 -59.6 70.7 -59.6 Z M 86.4 -62.8 L 86.4 -62.8 L 86.4 -62.8 Q 84.8 -64.5 84.2 -67.1 L 84.2 -67.1 L 84.2 -67.1 Q 83.5 -69.7 83.5 -74 L 83.5 -74 L 83.5 -74 Q 83.5 -78.3 85 -82.2 L 85 -82.2 L 85 -82.2 Q 86.4 -86.1 89.1 -88.9 L 89.1 -88.9 L 89.1 -88.9 Q 94.6 -94.8 103.7 -94.8 L 103.7 -94.8 L 103.7 -94.8 Q 107 -94.8 109.4 -93.7 L 109.4 -93.7 L 120.3 -94.8 L 115.6 -69.9 L 115.6 -69.9 Q 115.4 -69.1 115.4 -67.7 L 115.4 -67.7 L 115.4 -67.7 Q 115.4 -66.3 116.2 -65.4 L 116.2 -65.4 L 116.2 -65.4 Q 117.1 -64.5 118.4 -64.4 L 118.4 -64.4 L 118.4 -64.4 Q 117.7 -62.2 115.4 -60.9 L 115.4 -60.9 L 115.4 -60.9 Q 113.1 -59.6 110.4 -59.6 L 110.4 -59.6 L 110.4 -59.6 Q 107.8 -59.6 106.1 -60.6 L 106.1 -60.6 L 106.1 -60.6 Q 104.3 -61.6 103.8 -63.3 L 103.8 -63.3 L 103.8 -63.3 Q 102.8 -61.7 100.6 -60.6 L 100.6 -60.6 L 100.6 -60.6 Q 98.4 -59.6 95.5 -59.6 L 95.5 -59.6 L 95.5 -59.6 Q 92.6 -59.6 90.2 -60.4 L 90.2 -60.4 L 90.2 -60.4 Q 87.9 -61.2 86.4 -62.8 Z M 99.9 -88.8 L 99.9 -88.8 L 99.9 -88.8 Q 99.1 -87.6 98.5 -85.7 L 98.5 -85.7 L 98.5 -85.7 Q 97.8 -83.7 96.8 -78.5 L 96.8 -78.5 L 96.8 -78.5 Q 95.7 -73.3 95.7 -69.6 L 95.7 -69.6 L 95.7 -69.6 Q 95.7 -65.9 96.3 -64.8 L 96.3 -64.8 L 96.3 -64.8 Q 96.9 -63.7 97.9 -63.7 L 97.9 -63.7 L 97.9 -63.7 Q 100 -63.7 101.5 -65.7 L 101.5 -65.7 L 101.5 -65.7 Q 103 -67.6 103.5 -71.1 L 103.5 -71.1 L 106.9 -89.8 L 106.9 -89.8 Q 105.6 -91 104 -91 L 104 -91 L 104 -91 Q 102.4 -91 101.5 -90.5 L 101.5 -90.5 L 101.5 -90.5 Q 100.6 -90 99.9 -88.8 Z M 128 -87.6 L 128 -87.6 L 128 -87.6 Q 130.2 -90.7 133.5 -92.8 L 133.5 -92.8 L 133.5 -92.8 Q 136.8 -94.8 140.8 -94.8 L 140.8 -94.8 L 140.8 -94.8 Q 144.9 -94.8 146.8 -93.5 L 146.8 -93.5 L 159.3 -94.8 L 155 -70.2 L 155 -70.2 Q 152.8 -57.7 148 -52.8 L 148 -52.8 L 148 -52.8 Q 143.5 -48.1 134.6 -48.1 L 134.6 -48.1 L 134.6 -48.1 Q 127.9 -48.1 124.1 -50.2 L 124.1 -50.2 L 124.1 -50.2 Q 120.2 -52.3 120.2 -55.8 L 120.2 -55.8 L 120.2 -55.8 Q 120.2 -58.5 122.2 -60 L 122.2 -60 L 122.2 -60 Q 124.2 -61.5 127.3 -61.5 L 127.3 -61.5 L 127.3 -61.5 Q 130 -61.5 132 -60.3 L 132 -60.3 L 132 -60.3 Q 133.2 -59.6 133.8 -58.7 L 133.8 -58.7 L 133.8 -58.7 Q 132.3 -57.4 132.3 -55.3 L 132.3 -55.3 L 132.3 -55.3 Q 132.3 -52.6 134.9 -52.6 L 134.9 -52.6 L 134.9 -52.6 Q 139.2 -52.6 141.6 -62.7 L 141.6 -62.7 L 141.6 -62.7 Q 142.3 -65.4 142.9 -68.2 L 142.9 -68.2 L 142.9 -68.2 Q 140 -64.7 133.5 -64.7 L 133.5 -64.7 L 133.5 -64.7 Q 128.9 -64.7 126.3 -66.8 L 126.3 -66.8 L 126.3 -66.8 Q 123.7 -69 123.7 -74.1 L 123.7 -74.1 L 123.7 -74.1 Q 123.7 -77.3 124.8 -81 L 124.8 -81 L 124.8 -81 Q 125.9 -84.6 128 -87.6 Z M 136.4 -74 L 136.4 -74 L 136.4 -74 Q 136.4 -69.6 138.6 -69.6 L 138.6 -69.6 L 138.6 -69.6 Q 140.1 -69.6 141.6 -71.3 L 141.6 -71.3 L 141.6 -71.3 Q 142.8 -72.6 143.2 -74.6 L 143.2 -74.6 L 146.5 -91 L 146.5 -91 Q 146.2 -91.1 145.8 -91.2 L 145.8 -91.2 L 145.8 -91.2 Q 145.2 -91.5 144.4 -91.5 L 144.4 -91.5 L 144.4 -91.5 Q 140.5 -91.5 138.2 -85.1 L 138.2 -85.1 L 138.2 -85.1 Q 136.4 -80.1 136.4 -74 Z M 187.8 -71.7 L 187.8 -71.7 L 187.8 -71.7 Q 189.4 -70.6 189.4 -68.2 L 189.4 -68.2 L 189.4 -68.2 Q 189.4 -65.8 188.1 -64.3 L 188.1 -64.3 L 188.1 -64.3 Q 186.9 -62.8 184.9 -61.7 L 184.9 -61.7 L 184.9 -61.7 Q 180.8 -59.6 176.4 -59.6 L 176.4 -59.6 L 176.4 -59.6 Q 172 -59.6 169.4 -60.6 L 169.4 -60.6 L 169.4 -60.6 Q 166.8 -61.5 165.1 -63.3 L 165.1 -63.3 L 165.1 -63.3 Q 161.7 -66.7 161.7 -72.9 L 161.7 -72.9 L 161.7 -72.9 Q 161.7 -82.6 167 -88.5 L 167 -88.5 L 167 -88.5 Q 172.6 -94.8 182.4 -94.8 L 182.4 -94.8 L 182.4 -94.8 Q 188.5 -94.8 191.5 -92.3 L 191.5 -92.3 L 191.5 -92.3 Q 193.7 -90.3 193.7 -87.2 L 193.7 -87.2 L 193.7 -87.2 Q 193.7 -75.9 174.3 -75.9 L 174.3 -75.9 L 174.3 -75.9 Q 174 -74.3 174 -72.9 L 174 -72.9 L 174 -72.9 Q 174 -69.9 175.3 -68.8 L 175.3 -68.8 L 175.3 -68.8 Q 176.6 -67.7 179.1 -67.7 L 179.1 -67.7 L 179.1 -67.7 Q 181.5 -67.7 184.1 -68.8 L 184.1 -68.8 L 184.1 -68.8 Q 186.7 -69.9 187.8 -71.7 Z M 174.7 -78.7 L 174.7 -78.7 L 174.7 -78.7 Q 179.2 -78.7 181.9 -81.5 L 181.9 -81.5 L 181.9 -81.5 Q 184.5 -84.2 184.5 -88.5 L 184.5 -88.5 L 184.5 -88.5 Q 184.5 -90 184 -90.8 L 184 -90.8 L 184 -90.8 Q 183.4 -91.6 182.3 -91.6 L 182.3 -91.6 L 182.3 -91.6 Q 181.2 -91.6 180.3 -91.1 L 180.3 -91.1 L 180.3 -91.1 Q 179.4 -90.7 178.4 -89.3 L 178.4 -89.3 L 178.4 -89.3 Q 176 -86.1 174.7 -78.7 Z M 215 -83.4 L 215 -83.4 L 215 -83.4 Q 215.9 -85.7 215.9 -87.8 L 215.9 -87.8 L 215.9 -87.8 Q 215.9 -91.6 212.8 -91.6 L 212.8 -91.6 L 212.8 -91.6 Q 211.2 -91.6 209.9 -90.1 L 209.9 -90.1 L 209.9 -90.1 Q 208.6 -88.7 208.6 -86.9 L 208.6 -86.9 L 208.6 -86.9 Q 208.6 -85.6 209.6 -84.6 L 209.6 -84.6 L 209.6 -84.6 Q 211.1 -83.2 214.9 -80.9 L 214.9 -80.9 L 214.9 -80.9 Q 218.7 -78.6 220.1 -76.7 L 220.1 -76.7 L 220.1 -76.7 Q 221.6 -74.8 221.6 -72.2 L 221.6 -72.2 L 221.6 -72.2 Q 221.6 -69.6 220.3 -67.2 L 220.3 -67.2 L 220.3 -67.2 Q 219.1 -64.9 216.8 -63.2 L 216.8 -63.2 L 216.8 -63.2 Q 212 -59.6 204.3 -59.6 L 204.3 -59.6 L 204.3 -59.6 Q 200.2 -59.6 197 -61.8 L 197 -61.8 L 197 -61.8 Q 193.8 -63.9 193.8 -66.4 L 193.8 -66.4 L 193.8 -66.4 Q 193.8 -68.9 195.6 -70.4 L 195.6 -70.4 L 195.6 -70.4 Q 197.4 -71.8 200.1 -71.8 L 200.1 -71.8 L 200.1 -71.8 Q 202.8 -71.8 204.5 -70.8 L 204.5 -70.8 L 204.5 -70.8 Q 203.6 -68.7 203.6 -67.3 L 203.6 -67.3 L 203.6 -67.3 Q 203.6 -63.1 207.2 -63.1 L 207.2 -63.1 L 207.2 -63.1 Q 208.8 -63.1 209.8 -64 L 209.8 -64 L 209.8 -64 Q 210.8 -65 210.8 -66.7 L 210.8 -66.7 L 210.8 -66.7 Q 210.8 -69.9 205.3 -73.4 L 205.3 -73.4 L 205.3 -73.4 Q 200.8 -76.3 199.8 -77.5 L 199.8 -77.5 L 199.8 -77.5 Q 198.1 -79.5 198.1 -82.1 L 198.1 -82.1 L 198.1 -82.1 Q 198.1 -84.6 199.3 -87.1 L 199.3 -87.1 L 199.3 -87.1 Q 200.5 -89.5 202.7 -91.2 L 202.7 -91.2 L 202.7 -91.2 Q 207.4 -94.8 215.5 -94.8 L 215.5 -94.8 L 215.5 -94.8 Q 219.7 -94.8 222.2 -93.2 L 222.2 -93.2 L 222.2 -93.2 Q 224.6 -91.5 224.6 -88.7 L 224.6 -88.7 L 224.6 -88.7 Q 224.6 -85.9 222.9 -84.3 L 222.9 -84.3 L 222.9 -84.3 Q 221.2 -82.7 218.2 -82.7 L 218.2 -82.7 L 218.2 -82.7 Q 216 -82.7 215 -83.4 Z M 266.1 -81.5 L 279 -82.7 L 279 -82.7 Q 274.4 -72.5 274.4 -60.8 L 274.4 -60.8 L 274.4 -60.8 Q 272.7 -59.6 270.2 -59.6 L 270.2 -59.6 L 270.2 -59.6 Q 267.6 -59.6 266 -60.8 L 266 -60.8 L 266 -60.8 Q 264.4 -62 264.1 -63.2 L 264.1 -63.2 L 264.1 -63.2 Q 262.5 -61.5 259.9 -60.6 L 259.9 -60.6 L 259.9 -60.6 Q 257.3 -59.6 254.6 -59.6 L 254.6 -59.6 L 254.6 -59.6 Q 251.8 -59.6 249.4 -60.5 L 249.4 -60.5 L 249.4 -60.5 Q 247 -61.4 245.2 -63.4 L 245.2 -63.4 L 245.2 -63.4 Q 241.1 -67.7 241.1 -76 L 241.1 -76 L 241.1 -76 Q 241.1 -88.8 247.9 -96.5 L 247.9 -96.5 L 247.9 -96.5 Q 255 -104.4 267.4 -104.4 L 267.4 -104.4 L 267.4 -104.4 Q 276.1 -104.4 279.2 -99.9 L 279.2 -99.9 L 279.2 -99.9 Q 280.1 -98.5 280.1 -96.8 L 280.1 -96.8 L 280.1 -96.8 Q 280.1 -95.1 279.4 -93.7 L 279.4 -93.7 L 279.4 -93.7 Q 278.6 -92.3 277.5 -91.1 L 277.5 -91.1 L 277.5 -91.1 Q 274.7 -88.5 271.3 -88.5 L 271.3 -88.5 L 271.3 -88.5 Q 270 -88.5 268.7 -89 L 268.7 -89 L 268.7 -89 Q 269 -90.9 269 -93.2 L 269 -93.2 L 269 -93.2 Q 269 -95.4 268.8 -96.4 L 268.8 -96.4 L 268.8 -96.4 Q 268.7 -97.4 268.3 -98.3 L 268.3 -98.3 L 268.3 -98.3 Q 267.4 -100 265.6 -100 L 265.6 -100 L 265.6 -100 Q 263.8 -100 261.8 -98 L 261.8 -98 L 261.8 -98 Q 259.8 -96.1 258.2 -92.9 L 258.2 -92.9 L 258.2 -92.9 Q 254.6 -85.7 254.6 -77.1 L 254.6 -77.1 L 254.6 -77.1 Q 254.6 -73.1 256.2 -70.3 L 256.2 -70.3 L 256.2 -70.3 Q 257.8 -67.2 260.8 -67.2 L 260.8 -67.2 L 260.8 -67.2 Q 261.8 -67.2 262.7 -67.7 L 262.7 -67.7 L 262.7 -67.7 Q 263.7 -68.3 264 -68.6 L 264 -68.6 L 266.1 -81.5 Z M 284.9 -62.8 L 284.9 -62.8 L 284.9 -62.8 Q 283.4 -64.5 282.8 -67.1 L 282.8 -67.1 L 282.8 -67.1 Q 282.1 -69.7 282.1 -74 L 282.1 -74 L 282.1 -74 Q 282.1 -78.3 283.6 -82.2 L 283.6 -82.2 L 283.6 -82.2 Q 285 -86.1 287.7 -88.9 L 287.7 -88.9 L 287.7 -88.9 Q 293.2 -94.8 302.3 -94.8 L 302.3 -94.8 L 302.3 -94.8 Q 305.6 -94.8 308 -93.7 L 308 -93.7 L 318.9 -94.8 L 314.2 -69.9 L 314.2 -69.9 Q 314 -69.1 314 -67.7 L 314 -67.7 L 314 -67.7 Q 314 -66.3 314.8 -65.4 L 314.8 -65.4 L 314.8 -65.4 Q 315.7 -64.5 317 -64.4 L 317 -64.4 L 317 -64.4 Q 316.3 -62.2 314 -60.9 L 314 -60.9 L 314 -60.9 Q 311.7 -59.6 309 -59.6 L 309 -59.6 L 309 -59.6 Q 306.4 -59.6 304.7 -60.6 L 304.7 -60.6 L 304.7 -60.6 Q 302.9 -61.6 302.4 -63.3 L 302.4 -63.3 L 302.4 -63.3 Q 301.4 -61.7 299.2 -60.6 L 299.2 -60.6 L 299.2 -60.6 Q 297 -59.6 294.1 -59.6 L 294.1 -59.6 L 294.1 -59.6 Q 291.2 -59.6 288.8 -60.4 L 288.8 -60.4 L 288.8 -60.4 Q 286.4 -61.2 284.9 -62.8 Z M 298.4 -88.8 L 298.4 -88.8 L 298.4 -88.8 Q 297.7 -87.6 297.1 -85.7 L 297.1 -85.7 L 297.1 -85.7 Q 296.4 -83.7 295.4 -78.5 L 295.4 -78.5 L 295.4 -78.5 Q 294.3 -73.3 294.3 -69.6 L 294.3 -69.6 L 294.3 -69.6 Q 294.3 -65.9 294.9 -64.8 L 294.9 -64.8 L 294.9 -64.8 Q 295.5 -63.7 296.5 -63.7 L 296.5 -63.7 L 296.5 -63.7 Q 298.5 -63.7 300 -65.7 L 300 -65.7 L 300 -65.7 Q 301.6 -67.6 302.1 -71.1 L 302.1 -71.1 L 305.5 -89.8 L 305.5 -89.8 Q 304.2 -91 302.6 -91 L 302.6 -91 L 302.6 -91 Q 301 -91 300.1 -90.5 L 300.1 -90.5 L 300.1 -90.5 Q 299.2 -90 298.4 -88.8 Z M 337.6 -64.4 L 337.6 -64.4 L 337.6 -64.4 Q 335.7 -59.6 329.3 -59.6 L 329.3 -59.6 L 329.3 -59.6 Q 326.1 -59.6 324.1 -61.9 L 324.1 -61.9 L 324.1 -61.9 Q 322.4 -63.7 322.4 -65.8 L 322.4 -65.8 L 322.4 -65.8 Q 322.4 -70.6 324.7 -81.1 L 324.7 -81.1 L 329.3 -105.7 L 342.3 -107 L 336.1 -74.6 L 336.1 -74.6 Q 335 -69.9 335 -68.2 L 335 -68.2 L 335 -68.2 Q 335 -64.5 337.6 -64.4 Z M 358.4 -64.4 L 358.4 -64.4 L 358.4 -64.4 Q 356.4 -59.6 350.1 -59.6 L 350.1 -59.6 L 350.1 -59.6 Q 346.9 -59.6 344.8 -61.9 L 344.8 -61.9 L 344.8 -61.9 Q 343.2 -63.7 343.2 -65.8 L 343.2 -65.8 L 343.2 -65.8 Q 343.2 -70.6 345.4 -81.1 L 345.4 -81.1 L 350.1 -105.7 L 363.1 -107 L 356.8 -74.6 L 356.8 -74.6 Q 355.8 -69.9 355.8 -68.2 L 355.8 -68.2 L 355.8 -68.2 Q 355.8 -64.5 358.4 -64.4 Z M 389.7 -71.7 L 389.7 -71.7 L 389.7 -71.7 Q 391.3 -70.6 391.3 -68.2 L 391.3 -68.2 L 391.3 -68.2 Q 391.3 -65.8 390.1 -64.3 L 390.1 -64.3 L 390.1 -64.3 Q 388.9 -62.8 386.9 -61.7 L 386.9 -61.7 L 386.9 -61.7 Q 382.8 -59.6 378.4 -59.6 L 378.4 -59.6 L 378.4 -59.6 Q 374 -59.6 371.4 -60.6 L 371.4 -60.6 L 371.4 -60.6 Q 368.8 -61.5 367.1 -63.3 L 367.1 -63.3 L 367.1 -63.3 Q 363.7 -66.7 363.7 -72.9 L 363.7 -72.9 L 363.7 -72.9 Q 363.7 -82.6 368.9 -88.5 L 368.9 -88.5 L 368.9 -88.5 Q 374.6 -94.8 384.4 -94.8 L 384.4 -94.8 L 384.4 -94.8 Q 390.4 -94.8 393.5 -92.3 L 393.5 -92.3 L 393.5 -92.3 Q 395.7 -90.3 395.7 -87.2 L 395.7 -87.2 L 395.7 -87.2 Q 395.7 -75.9 376.2 -75.9 L 376.2 -75.9 L 376.2 -75.9 Q 376 -74.3 376 -72.9 L 376 -72.9 L 376 -72.9 Q 376 -69.9 377.3 -68.8 L 377.3 -68.8 L 377.3 -68.8 Q 378.6 -67.7 381 -67.7 L 381 -67.7 L 381 -67.7 Q 383.5 -67.7 386.1 -68.8 L 386.1 -68.8 L 386.1 -68.8 Q 388.7 -69.9 389.7 -71.7 Z M 376.7 -78.7 L 376.7 -78.7 L 376.7 -78.7 Q 381.2 -78.7 383.9 -81.5 L 383.9 -81.5 L 383.9 -81.5 Q 386.5 -84.2 386.5 -88.5 L 386.5 -88.5 L 386.5 -88.5 Q 386.5 -90 385.9 -90.8 L 385.9 -90.8 L 385.9 -90.8 Q 385.4 -91.6 384.3 -91.6 L 384.3 -91.6 L 384.3 -91.6 Q 383.2 -91.6 382.3 -91.1 L 382.3 -91.1 L 382.3 -91.1 Q 381.4 -90.7 380.4 -89.3 L 380.4 -89.3 L 380.4 -89.3 Q 378 -86.1 376.7 -78.7 Z M 417.9 -78.9 L 417.9 -78.9 L 417.9 -78.9 Q 420.2 -83 420.2 -87.1 L 420.2 -87.1 L 420.2 -87.1 Q 420.2 -89.9 418.2 -89.9 L 418.2 -89.9 L 418.2 -89.9 Q 416.7 -89.9 415.1 -87.3 L 415.1 -87.3 L 415.1 -87.3 Q 413.4 -84.6 412.9 -81.2 L 412.9 -81.2 L 409.6 -60.9 L 396.3 -59.6 L 402.9 -93.5 L 413.4 -94.8 L 412.3 -88.4 L 412.3 -88.4 Q 415.4 -94.8 422.4 -94.8 L 422.4 -94.8 L 422.4 -94.8 Q 426.2 -94.8 428.2 -92.9 L 428.2 -92.9 L 428.2 -92.9 Q 430.2 -91 430.2 -87 L 430.2 -87 L 430.2 -87 Q 430.2 -83.1 427.6 -80.6 L 427.6 -80.6 L 427.6 -80.6 Q 425 -78.1 420.6 -78.1 L 420.6 -78.1 L 420.6 -78.1 Q 418.7 -78.1 417.9 -78.9 Z M 451.6 -68.1 L 451.6 -68.1 L 451.6 -68.1 Q 448.2 -64.7 442.2 -64.7 L 442.2 -64.7 L 442.2 -64.7 Q 434.5 -64.7 432.9 -70.2 L 432.9 -70.2 L 432.9 -70.2 Q 432.4 -71.9 432.4 -73.8 L 432.4 -73.8 L 432.4 -73.8 Q 432.4 -75.6 432.8 -77.5 L 432.8 -77.5 L 435.8 -93.5 L 448.8 -94.8 L 445.3 -76.2 L 445.3 -76.2 Q 445.2 -75.4 445 -74.5 L 445 -74.5 L 445 -74.5 Q 444.8 -73.6 444.8 -72.6 L 444.8 -72.6 L 444.8 -72.6 Q 444.8 -71.7 445.1 -71.1 L 445.1 -71.1 L 445.1 -71.1 Q 445.4 -70.5 445.9 -70.1 L 445.9 -70.1 L 445.9 -70.1 Q 446.6 -69.6 448 -69.6 L 448 -69.6 L 448 -69.6 Q 449.4 -69.6 450.6 -71.3 L 450.6 -71.3 L 450.6 -71.3 Q 451.8 -72.9 452.3 -75.8 L 452.3 -75.8 L 455.9 -93.5 L 468.5 -94.8 L 463.7 -69.7 L 463.7 -69.7 Q 461.3 -57.4 456.4 -52.5 L 456.4 -52.5 L 456.4 -52.5 Q 453.9 -50 450.7 -49 L 450.7 -49 L 450.7 -49 Q 447.5 -48 443.3 -48 L 443.3 -48 L 443.3 -48 Q 436.6 -48 432.8 -50.1 L 432.8 -50.1 L 432.8 -50.1 Q 428.9 -52.3 428.9 -55.8 L 428.9 -55.8 L 428.9 -55.8 Q 428.9 -58.4 430.9 -59.9 L 430.9 -59.9 L 430.9 -59.9 Q 432.9 -61.4 436 -61.4 L 436 -61.4 L 436 -61.4 Q 438.6 -61.4 440.7 -60.3 L 440.7 -60.3 L 440.7 -60.3 Q 441.9 -59.6 442.5 -58.7 L 442.5 -58.7 L 442.5 -58.7 Q 441 -57.4 441 -55.3 L 441 -55.3 L 441 -55.3 Q 441 -52.4 443.6 -52.4 L 443.6 -52.4 L 443.6 -52.4 Q 447.8 -52.4 450.2 -62.2 L 450.2 -62.2 L 450.2 -62.2 Q 450.9 -65.1 451.6 -68.1 Z" fill="#cce3de"></path></g></g><style>text {
  font-size: 64px;
  font-family: Arial Black;
  dominant-baseline: central;
  text-anchor: middle;
}</style></svg>